<mxfile host="app.diagrams.net" modified="2023-09-30T09:09:39.178Z" agent="Mozilla/5.0 (Macintosh; Intel Mac OS X 10_15_7) AppleWebKit/605.1.15 (KHTML, like Gecko) Version/16.5 Safari/605.1.15" version="21.8.1" etag="jtyzCH44zDwUFmZkqz3N" type="github">
  <diagram name="Seite-1" id="mVrZ6eMdvA_rugiv0aS7">
    <mxGraphModel>
      <root>
        <mxCell id="0" />
        <mxCell id="1" parent="0" />
      </root>
    </mxGraphModel>
  </diagram>
</mxfile>
